<svg xmlns="http://www.w3.org/2000/svg" width="315.45" height="48.771875" viewBox="80 12 318 43.5" class="css-1j8o68f"><defs id="SvgjsDefs7924"></defs><g id="SvgjsG7925" featurekey="symbolContainer" transform="matrix(1.41,0,0,1.41,-1,3)" fill="#f6f6f6"><circle cx="25" cy="25" r="25"></circle></g><g id="SvgjsG7926" featurekey="monogramFeature-0" transform="matrix(1.0569228367184162,0,0,1.0569228367184162,9.863354368453992,-0.8538385189355893)" fill="#17696a"><path d="M33.3 42.3 l9.06 13.86 q0.66 1.08 0.06 2.16 q-0.24 0.48 -0.75 0.78 t-1.05 0.3 l-5.46 0 q-0.54 0 -1.02 -0.27 t-0.72 -0.69 l-9.12 -14.46 l-10.68 0 l0 13.32 q0 0.84 -0.63 1.47 t-1.47 0.63 l-4.56 0 q-0.84 0 -1.47 -0.63 t-0.63 -1.47 l0 -19.74 q0 -0.84 0.63 -1.47 t1.47 -0.63 l18.48 0 q5.28 0 7.02 -3 q0.6 -0.96 0.6 -2.76 q0 -2.82 -1.86 -4.44 q-1.92 -1.74 -5.52 -1.74 l-18.72 0 q-0.84 0 -1.47 -0.63 t-0.63 -1.47 l0 -4.32 q0 -0.84 0.63 -1.47 t1.47 -0.63 l19.26 0 q7.02 0 11.22 3.96 q4.38 3.96 4.38 10.74 q0 4.38 -1.92 7.47 t-5.58 4.71 z"></path></g><g id="SvgjsG7927" featurekey="nameFeature-0" transform="matrix(1.4675093878338867,0,0,1.4675093878338867,86.24526572072641,-1.6750924788128554)" fill="#f6f6f6"><path d="M22.2 28.2 l6.04 9.24 q0.44 0.72 0.04 1.44 q-0.16 0.32 -0.5 0.52 t-0.7 0.2 l-3.64 0 q-0.36 0 -0.68 -0.18 t-0.48 -0.46 l-6.08 -9.64 l-7.12 0 l0 8.88 q0 0.56 -0.42 0.98 t-0.98 0.42 l-3.04 0 q-0.56 0 -0.98 -0.42 t-0.42 -0.98 l0 -13.16 q0 -0.56 0.42 -0.98 t0.98 -0.42 l12.32 0 q3.52 0 4.68 -2 q0.4 -0.64 0.4 -1.84 q0 -1.88 -1.24 -2.96 q-1.28 -1.16 -3.68 -1.16 l-12.48 0 q-0.56 0 -0.98 -0.42 t-0.42 -0.98 l0 -2.88 q0 -0.56 0.42 -0.98 t0.98 -0.42 l12.84 0 q4.68 0 7.48 2.64 q2.92 2.64 2.92 7.16 q0 2.92 -1.28 4.98 t-3.72 3.14 z M50.867999999999995 10.32 q0.48 0.4 0.48 1.08 l0 3 q0 0.52 -0.3 0.9 t-0.82 0.5 q-2.56 0.52 -4.36 2.44 q-2.44 2.56 -2.44 6.66 t2.44 6.7 q1.8 1.88 4.36 2.4 q0.52 0.12 0.82 0.5 t0.3 0.9 l0 3 q0 0.64 -0.48 1.08 q-0.44 0.32 -0.92 0.32 l-0.24 0 q-4.64 -0.76 -7.96 -4.2 q-4.16 -4.28 -4.16 -10.66 t4.16 -10.74 q3.24 -3.36 7.96 -4.16 q0.64 -0.12 1.16 0.28 z M63.428 14.2 q4.16 4.36 4.16 10.74 t-4.16 10.66 q-3.32 3.44 -7.96 4.2 l-0.24 0 q-0.48 0 -0.92 -0.32 q-0.48 -0.44 -0.48 -1.08 l0 -3 q0 -0.52 0.3 -0.9 t0.82 -0.5 q2.56 -0.52 4.36 -2.4 q2.44 -2.6 2.44 -6.7 t-2.44 -6.66 q-1.8 -1.92 -4.36 -2.44 q-0.52 -0.12 -0.82 -0.5 t-0.3 -0.9 l0 -3 q0 -0.68 0.5 -1.08 t1.14 -0.28 q4.72 0.8 7.96 4.16 z M99.376 34.24 q0.56 0 0.98 0.42 t0.42 0.98 l0 2.88 q0 0.56 -0.42 0.98 t-0.98 0.42 l-21.48 0 q-0.56 0 -0.98 -0.42 t-0.42 -0.98 l0 -2.92 q0 -0.48 0.32 -0.88 l5.72 -6.92 q0.44 -0.52 1.08 -0.52 l3.84 0 q0.4 0 0.76 0.22 t0.54 0.6 t0.12 0.8 t-0.34 0.7 l-3.84 4.64 l14.68 0 z M99.376 10 q0.56 0 0.98 0.42 t0.42 1.02 l0 2.92 q0 0.52 -0.32 0.92 l-5.72 6.84 q-0.4 0.52 -1.08 0.52 l-3.8 0 q-0.4 0 -0.76 -0.22 t-0.56 -0.58 q-0.32 -0.88 0.2 -1.52 l3.84 -4.6 l-14.4 0 q-0.6 0 -1.02 -0.42 t-0.42 -1.02 l0 -2.84 q0 -0.6 0.42 -1.02 t1.02 -0.42 l21.2 0 z M114.284 10 q0.6 0 1.02 0.42 t0.42 1.02 l0 2.92 q0 0.6 -0.42 1.02 t-1.02 0.42 l-4.12 0 q-0.56 0 -0.98 -0.42 t-0.42 -1.02 l0 -2.92 q0 -0.6 0.42 -1.02 t0.98 -0.42 l4.12 0 z M132.16400000000002 10 q0.56 0 0.98 0.42 t0.42 1.02 l0 2.92 q0 0.6 -0.42 1.02 t-0.98 0.42 l-8.04 0 l0 22.72 q0 0.56 -0.42 0.98 t-0.98 0.42 l-3.08 0 q-0.6 0 -1.02 -0.42 t-0.42 -0.98 l0 -27.08 q0 -0.6 0.42 -1.02 t1.02 -0.42 l12.52 0 z M155.15200000000002 10.32 q0.48 0.4 0.48 1.08 l0 3 q0 0.52 -0.3 0.9 t-0.82 0.5 q-2.56 0.52 -4.36 2.44 q-2.44 2.56 -2.44 6.66 t2.44 6.7 q1.8 1.88 4.36 2.4 q0.52 0.12 0.82 0.5 t0.3 0.9 l0 3 q0 0.64 -0.48 1.08 q-0.44 0.32 -0.92 0.32 l-0.24 0 q-4.64 -0.76 -7.96 -4.2 q-4.16 -4.28 -4.16 -10.66 t4.16 -10.74 q3.24 -3.36 7.96 -4.16 q0.64 -0.12 1.16 0.28 z M167.71200000000002 14.2 q4.16 4.36 4.16 10.74 t-4.16 10.66 q-3.32 3.44 -7.96 4.2 l-0.24 0 q-0.48 0 -0.92 -0.32 q-0.48 -0.44 -0.48 -1.08 l0 -3 q0 -0.52 0.3 -0.9 t0.82 -0.5 q2.56 -0.52 4.36 -2.4 q2.44 -2.6 2.44 -6.7 t-2.44 -6.66 q-1.8 -1.92 -4.36 -2.44 q-0.52 -0.12 -0.82 -0.5 t-0.3 -0.9 l0 -3 q0 -0.68 0.5 -1.08 t1.14 -0.28 q4.72 0.8 7.96 4.16 z M207.38 37.64 q0.24 0.32 0.28 0.72 t-0.12 0.76 t-0.52 0.58 t-0.76 0.22 l-3.88 0 q-0.72 0 -1.16 -0.56 l-7.64 -10.12 l-7.64 10.12 q-0.44 0.56 -1.12 0.56 l-3.92 0 q-0.4 0 -0.74 -0.2 t-0.5 -0.56 q-0.4 -0.84 0.12 -1.52 l20.72 -27.08 q0.44 -0.56 1.12 -0.56 l3.88 0 q0.4 0 0.74 0.22 t0.54 0.58 t0.16 0.76 t-0.32 0.72 l-9.4 12.24 z M186.3 19.76 l-5.76 -7.48 q-0.28 -0.32 -0.32 -0.72 t0.16 -0.76 t0.54 -0.58 t0.74 -0.22 l3.88 0 q0.32 0 0.64 0.14 t0.48 0.42 l5.64 7.48 q0.56 0.68 0.16 1.52 q-0.16 0.36 -0.5 0.56 t-0.78 0.2 l-3.76 0 q-0.32 0 -0.64 -0.14 t-0.48 -0.42 z"></path></g></svg>