<svg xmlns="http://www.w3.org/2000/svg" width="111.8" height="115.06615925058546" viewBox="-1 0 111 108.74999999999999" class="css-1j8o68f"><defs id="SvgjsDefs7511"></defs><g id="SvgjsG7512" featurekey="symbolContainer" transform="matrix(2.1149999999999998,0,0,2.1149999999999998,-1,3)" fill="#f6f6f6"><circle cx="25" cy="25" r="25"></circle></g><g id="SvgjsG7513" featurekey="monogramFeature-0" transform="matrix(1.0569228367184162,0,0,1.0569228367184162,27.86335436845399,16.14616148106441)" fill="#17696a"><path d="M33.3 42.3 l9.06 13.86 q0.66 1.08 0.06 2.16 q-0.24 0.48 -0.75 0.78 t-1.05 0.3 l-5.46 0 q-0.54 0 -1.02 -0.27 t-0.72 -0.69 l-9.12 -14.46 l-10.68 0 l0 13.32 q0 0.84 -0.63 1.47 t-1.47 0.63 l-4.56 0 q-0.84 0 -1.47 -0.63 t-0.63 -1.47 l0 -19.74 q0 -0.84 0.63 -1.47 t1.47 -0.63 l18.48 0 q5.28 0 7.02 -3 q0.6 -0.96 0.6 -2.76 q0 -2.82 -1.86 -4.44 q-1.92 -1.74 -5.52 -1.74 l-18.72 0 q-0.84 0 -1.47 -0.63 t-0.63 -1.47 l0 -4.32 q0 -0.84 0.63 -1.47 t1.47 -0.63 l19.26 0 q7.02 0 11.22 3.96 q4.38 3.96 4.38 10.74 q0 4.38 -1.92 7.47 t-5.58 4.71 z"></path></g></svg>